<mxfile host="app.diagrams.net" modified="2021-07-23T09:54:15.573Z" agent="5.0 (Macintosh; Intel Mac OS X 10_15_6) AppleWebKit/605.1.15 (KHTML, like Gecko) Version/13.1.2 Safari/605.1.15" etag="2YxU47TH_6fCeBL3qe9y" version="13.11.0" type="github">
  <diagram id="C5RBs43oDa-KdzZeNtuy" name="Page-1">
    <mxGraphModel dx="786" dy="483" grid="1" gridSize="10" guides="1" tooltips="1" connect="1" arrows="1" fold="1" page="1" pageScale="1" pageWidth="827" pageHeight="1169" math="0" shadow="0">
      <root>
        <mxCell id="WIyWlLk6GJQsqaUBKTNV-0" />
        <mxCell id="WIyWlLk6GJQsqaUBKTNV-1" parent="WIyWlLk6GJQsqaUBKTNV-0" />
        <mxCell id="hDI0mffDQ7QGBMzZp17K-14" value="" style="edgeStyle=orthogonalEdgeStyle;rounded=0;orthogonalLoop=1;jettySize=auto;html=1;" edge="1" parent="WIyWlLk6GJQsqaUBKTNV-1" source="hDI0mffDQ7QGBMzZp17K-0" target="hDI0mffDQ7QGBMzZp17K-1">
          <mxGeometry relative="1" as="geometry" />
        </mxCell>
        <mxCell id="hDI0mffDQ7QGBMzZp17K-0" value="WKWebView加载内容" style="rounded=0;whiteSpace=wrap;html=1;" vertex="1" parent="WIyWlLk6GJQsqaUBKTNV-1">
          <mxGeometry x="396" y="340" width="120" height="40" as="geometry" />
        </mxCell>
        <mxCell id="hDI0mffDQ7QGBMzZp17K-15" value="" style="edgeStyle=orthogonalEdgeStyle;rounded=0;orthogonalLoop=1;jettySize=auto;html=1;" edge="1" parent="WIyWlLk6GJQsqaUBKTNV-1" source="hDI0mffDQ7QGBMzZp17K-1" target="hDI0mffDQ7QGBMzZp17K-11">
          <mxGeometry relative="1" as="geometry" />
        </mxCell>
        <mxCell id="hDI0mffDQ7QGBMzZp17K-1" value="获取contentSize和frame" style="rounded=0;whiteSpace=wrap;html=1;" vertex="1" parent="WIyWlLk6GJQsqaUBKTNV-1">
          <mxGeometry x="383" y="410" width="146" height="40" as="geometry" />
        </mxCell>
        <mxCell id="hDI0mffDQ7QGBMzZp17K-20" style="edgeStyle=orthogonalEdgeStyle;rounded=0;orthogonalLoop=1;jettySize=auto;html=1;entryX=0;entryY=0.5;entryDx=0;entryDy=0;" edge="1" parent="WIyWlLk6GJQsqaUBKTNV-1" source="hDI0mffDQ7QGBMzZp17K-3" target="hDI0mffDQ7QGBMzZp17K-8">
          <mxGeometry relative="1" as="geometry" />
        </mxCell>
        <mxCell id="hDI0mffDQ7QGBMzZp17K-3" value="计算水平方向屏数" style="rounded=0;whiteSpace=wrap;html=1;" vertex="1" parent="WIyWlLk6GJQsqaUBKTNV-1">
          <mxGeometry x="274" y="630" width="140" height="40" as="geometry" />
        </mxCell>
        <mxCell id="hDI0mffDQ7QGBMzZp17K-21" style="edgeStyle=orthogonalEdgeStyle;rounded=0;orthogonalLoop=1;jettySize=auto;html=1;entryX=1;entryY=0.5;entryDx=0;entryDy=0;" edge="1" parent="WIyWlLk6GJQsqaUBKTNV-1" source="hDI0mffDQ7QGBMzZp17K-4" target="hDI0mffDQ7QGBMzZp17K-8">
          <mxGeometry relative="1" as="geometry" />
        </mxCell>
        <mxCell id="hDI0mffDQ7QGBMzZp17K-4" value="计算竖直方向屏数" style="rounded=0;whiteSpace=wrap;html=1;" vertex="1" parent="WIyWlLk6GJQsqaUBKTNV-1">
          <mxGeometry x="503" y="630" width="139" height="40" as="geometry" />
        </mxCell>
        <mxCell id="hDI0mffDQ7QGBMzZp17K-24" value="" style="edgeStyle=orthogonalEdgeStyle;rounded=0;orthogonalLoop=1;jettySize=auto;html=1;entryX=0.5;entryY=0;entryDx=0;entryDy=0;" edge="1" parent="WIyWlLk6GJQsqaUBKTNV-1" source="hDI0mffDQ7QGBMzZp17K-5" target="hDI0mffDQ7QGBMzZp17K-10">
          <mxGeometry relative="1" as="geometry" />
        </mxCell>
        <mxCell id="hDI0mffDQ7QGBMzZp17K-5" value="完成长截图" style="rounded=0;whiteSpace=wrap;html=1;" vertex="1" parent="WIyWlLk6GJQsqaUBKTNV-1">
          <mxGeometry x="396" y="840" width="120" height="40" as="geometry" />
        </mxCell>
        <mxCell id="hDI0mffDQ7QGBMzZp17K-23" value="" style="edgeStyle=orthogonalEdgeStyle;rounded=0;orthogonalLoop=1;jettySize=auto;html=1;" edge="1" parent="WIyWlLk6GJQsqaUBKTNV-1" source="hDI0mffDQ7QGBMzZp17K-7" target="hDI0mffDQ7QGBMzZp17K-5">
          <mxGeometry relative="1" as="geometry" />
        </mxCell>
        <mxCell id="hDI0mffDQ7QGBMzZp17K-7" value="为绘制完全每屏做一定延时操作" style="rounded=0;whiteSpace=wrap;html=1;" vertex="1" parent="WIyWlLk6GJQsqaUBKTNV-1">
          <mxGeometry x="396" y="770" width="120" height="40" as="geometry" />
        </mxCell>
        <mxCell id="hDI0mffDQ7QGBMzZp17K-22" value="" style="edgeStyle=orthogonalEdgeStyle;rounded=0;orthogonalLoop=1;jettySize=auto;html=1;" edge="1" parent="WIyWlLk6GJQsqaUBKTNV-1" source="hDI0mffDQ7QGBMzZp17K-8" target="hDI0mffDQ7QGBMzZp17K-7">
          <mxGeometry relative="1" as="geometry" />
        </mxCell>
        <mxCell id="hDI0mffDQ7QGBMzZp17K-8" value="&lt;p style=&quot;margin: 0px ; font-stretch: normal ; line-height: normal ; font-family: &amp;#34;pingfang sc&amp;#34;&quot;&gt;水平和竖直方向遍历绘制并拼接&lt;/p&gt;" style="rounded=0;whiteSpace=wrap;html=1;strokeColor=#000000;" vertex="1" parent="WIyWlLk6GJQsqaUBKTNV-1">
          <mxGeometry x="396" y="700" width="120" height="40" as="geometry" />
        </mxCell>
        <mxCell id="hDI0mffDQ7QGBMzZp17K-18" style="edgeStyle=orthogonalEdgeStyle;rounded=0;orthogonalLoop=1;jettySize=auto;html=1;entryX=0.5;entryY=0;entryDx=0;entryDy=0;exitX=1;exitY=0.5;exitDx=0;exitDy=0;" edge="1" parent="WIyWlLk6GJQsqaUBKTNV-1" source="hDI0mffDQ7QGBMzZp17K-9" target="hDI0mffDQ7QGBMzZp17K-4">
          <mxGeometry relative="1" as="geometry">
            <mxPoint x="590" y="630" as="targetPoint" />
          </mxGeometry>
        </mxCell>
        <mxCell id="hDI0mffDQ7QGBMzZp17K-19" style="edgeStyle=orthogonalEdgeStyle;rounded=0;orthogonalLoop=1;jettySize=auto;html=1;entryX=0.5;entryY=0;entryDx=0;entryDy=0;exitX=0;exitY=0.5;exitDx=0;exitDy=0;" edge="1" parent="WIyWlLk6GJQsqaUBKTNV-1" source="hDI0mffDQ7QGBMzZp17K-9" target="hDI0mffDQ7QGBMzZp17K-3">
          <mxGeometry relative="1" as="geometry" />
        </mxCell>
        <mxCell id="hDI0mffDQ7QGBMzZp17K-9" value="按比例缩放便于截图" style="rounded=0;whiteSpace=wrap;html=1;" vertex="1" parent="WIyWlLk6GJQsqaUBKTNV-1">
          <mxGeometry x="396" y="560" width="120" height="40" as="geometry" />
        </mxCell>
        <mxCell id="hDI0mffDQ7QGBMzZp17K-25" value="" style="edgeStyle=orthogonalEdgeStyle;rounded=0;orthogonalLoop=1;jettySize=auto;html=1;" edge="1" parent="WIyWlLk6GJQsqaUBKTNV-1" source="hDI0mffDQ7QGBMzZp17K-10" target="hDI0mffDQ7QGBMzZp17K-12">
          <mxGeometry relative="1" as="geometry" />
        </mxCell>
        <mxCell id="hDI0mffDQ7QGBMzZp17K-10" value="恢复原始比例" style="rounded=0;whiteSpace=wrap;html=1;" vertex="1" parent="WIyWlLk6GJQsqaUBKTNV-1">
          <mxGeometry x="396" y="910" width="120" height="40" as="geometry" />
        </mxCell>
        <mxCell id="hDI0mffDQ7QGBMzZp17K-16" value="" style="edgeStyle=orthogonalEdgeStyle;rounded=0;orthogonalLoop=1;jettySize=auto;html=1;" edge="1" parent="WIyWlLk6GJQsqaUBKTNV-1" source="hDI0mffDQ7QGBMzZp17K-11" target="hDI0mffDQ7QGBMzZp17K-9">
          <mxGeometry relative="1" as="geometry" />
        </mxCell>
        <mxCell id="hDI0mffDQ7QGBMzZp17K-11" value="添加单屏截图蒙层" style="rounded=0;whiteSpace=wrap;html=1;" vertex="1" parent="WIyWlLk6GJQsqaUBKTNV-1">
          <mxGeometry x="396" y="480" width="120" height="40" as="geometry" />
        </mxCell>
        <mxCell id="hDI0mffDQ7QGBMzZp17K-12" value="移除单屏截图蒙层" style="rounded=0;whiteSpace=wrap;html=1;" vertex="1" parent="WIyWlLk6GJQsqaUBKTNV-1">
          <mxGeometry x="396" y="980" width="120" height="40" as="geometry" />
        </mxCell>
      </root>
    </mxGraphModel>
  </diagram>
</mxfile>
